<svg width="1440" height="859" viewBox="0 0 1440 859" fill="none" xmlns="http://www.w3.org/2000/svg">
<g clip-path="url(#clip0_272_1853)">
<g filter="url(#filter0_f_272_1853)">
<path d="M-10.2817 2.29451L286.155 427.181C286.395 427.525 286.395 427.982 286.155 428.326L-8.46167 850.604C-9.02155 851.406 -10.2818 851.01 -10.2818 850.032L-10.2891 2.29742C-10.2891 2.29358 -10.2843 2.29169 -10.2817 2.29451V2.29451Z" fill="#77A55E"/>
</g>
</g>
<g clip-path="url(#clip1_272_1853)">
<g filter="url(#filter1_f_272_1853)">
<path d="M1450.28 2.29451L1153.84 427.181C1153.6 427.525 1153.6 427.982 1153.84 428.326L1448.46 850.604C1449.02 851.406 1450.28 851.01 1450.28 850.032L1450.29 2.29742C1450.29 2.29358 1450.28 2.29169 1450.28 2.29451V2.29451Z" fill="#77A55E"/>
</g>
</g>
<defs>
<filter id="filter0_f_272_1853" x="-80.2891" y="-67.707" width="436.625" height="988.74" filterUnits="userSpaceOnUse" color-interpolation-filters="sRGB">
<feFlood flood-opacity="0" result="BackgroundImageFix"/>
<feBlend mode="normal" in="SourceGraphic" in2="BackgroundImageFix" result="shape"/>
<feGaussianBlur stdDeviation="35" result="effect1_foregroundBlur_272_1853"/>
</filter>
<filter id="filter1_f_272_1853" x="1083.66" y="-67.707" width="436.625" height="988.74" filterUnits="userSpaceOnUse" color-interpolation-filters="sRGB">
<feFlood flood-opacity="0" result="BackgroundImageFix"/>
<feBlend mode="normal" in="SourceGraphic" in2="BackgroundImageFix" result="shape"/>
<feGaussianBlur stdDeviation="35" result="effect1_foregroundBlur_272_1853"/>
</filter>
<clipPath id="clip0_272_1853">
<rect width="450" height="860" fill="white" transform="matrix(-1 0 0 1 450 -2)"/>
</clipPath>
<clipPath id="clip1_272_1853">
<rect width="450" height="860" fill="white" transform="translate(990 -2)"/>
</clipPath>
</defs>
</svg>
