<svg width="1440" height="858" viewBox="0 0 1440 858" fill="none" xmlns="http://www.w3.org/2000/svg">
<g clip-path="url(#clip0_212_833)">
<g clip-path="url(#clip1_212_833)">
<rect width="37.3516" height="860" transform="translate(997 -2)" fill="#141414" fill-opacity="0.01"/>
<rect x="997" y="-2" width="37.3516" height="860" fill="url(#paint0_radial_212_833)"/>
</g>
<g clip-path="url(#clip2_212_833)">
<rect width="37.3516" height="860" transform="translate(1034.35 -2)" fill="#141414" fill-opacity="0.01"/>
<rect x="1034.35" y="-2" width="37.3516" height="860" fill="url(#paint1_radial_212_833)"/>
</g>
<g clip-path="url(#clip3_212_833)">
<rect width="37.3516" height="860" transform="translate(1071.7 -2)" fill="#141414" fill-opacity="0.01"/>
<rect x="1071.7" y="-2" width="37.3516" height="860" fill="url(#paint2_radial_212_833)"/>
</g>
<g clip-path="url(#clip4_212_833)">
<rect width="37.3516" height="860" transform="translate(1109.05 -2)" fill="#141414" fill-opacity="0.01"/>
<rect x="1109.05" y="-2" width="37.3516" height="860" fill="url(#paint3_radial_212_833)"/>
</g>
<g clip-path="url(#clip5_212_833)">
<rect width="37.3516" height="860" transform="translate(1146.41 -2)" fill="#141414" fill-opacity="0.01"/>
<rect x="1146.41" y="-2" width="37.3516" height="860" fill="url(#paint4_radial_212_833)"/>
</g>
<g clip-path="url(#clip6_212_833)">
<rect width="37.3516" height="860" transform="translate(1183.76 -2)" fill="#141414" fill-opacity="0.01"/>
<rect x="1183.76" y="-2" width="37.3516" height="860" fill="url(#paint5_radial_212_833)"/>
</g>
<g clip-path="url(#clip7_212_833)">
<rect width="37.3516" height="860" transform="translate(1221.11 -2)" fill="#141414" fill-opacity="0.01"/>
<rect x="1221.11" y="-2" width="37.3516" height="860" fill="url(#paint6_radial_212_833)"/>
</g>
<g clip-path="url(#clip8_212_833)">
<rect width="37.3516" height="860" transform="translate(1258.46 -2)" fill="#141414" fill-opacity="0.01"/>
<rect x="1258.46" y="-2" width="37.3516" height="860" fill="url(#paint7_radial_212_833)"/>
</g>
<g clip-path="url(#clip9_212_833)">
<rect width="37.3516" height="860" transform="translate(1295.81 -2)" fill="#141414" fill-opacity="0.01"/>
<rect x="1295.81" y="-2" width="37.3516" height="860" fill="url(#paint8_radial_212_833)"/>
</g>
<g clip-path="url(#clip10_212_833)">
<rect width="37.3516" height="860" transform="translate(1333.16 -2)" fill="#141414" fill-opacity="0.01"/>
<rect x="1333.16" y="-2" width="37.3516" height="860" fill="url(#paint9_radial_212_833)"/>
</g>
<g clip-path="url(#clip11_212_833)">
<rect width="37.3516" height="860" transform="translate(1370.52 -2)" fill="#141414" fill-opacity="0.01"/>
<rect x="1370.52" y="-2" width="37.3516" height="860" fill="url(#paint10_radial_212_833)"/>
</g>
<g clip-path="url(#clip12_212_833)">
<rect width="37.3516" height="860" transform="translate(1407.87 -2)" fill="#141414" fill-opacity="0.01"/>
<rect x="1407.87" y="-2" width="37.3516" height="860" fill="url(#paint11_radial_212_833)"/>
</g>
</g>
<g clip-path="url(#clip13_212_833)">
<g clip-path="url(#clip14_212_833)">
<rect width="37.3516" height="860" transform="matrix(-1 0 0 1 443.109 -2)" fill="#141414" fill-opacity="0.01"/>
<rect width="37.3516" height="860" transform="matrix(-1 0 0 1 443.109 -2)" fill="url(#paint12_radial_212_833)"/>
</g>
<g clip-path="url(#clip15_212_833)">
<rect width="37.3516" height="860" transform="matrix(-1 0 0 1 405.758 -2)" fill="#141414" fill-opacity="0.01"/>
<rect width="37.3516" height="860" transform="matrix(-1 0 0 1 405.758 -2)" fill="url(#paint13_radial_212_833)"/>
</g>
<g clip-path="url(#clip16_212_833)">
<rect width="37.3516" height="860" transform="matrix(-1 0 0 1 368.406 -2)" fill="#141414" fill-opacity="0.01"/>
<rect width="37.3516" height="860" transform="matrix(-1 0 0 1 368.406 -2)" fill="url(#paint14_radial_212_833)"/>
</g>
<g clip-path="url(#clip17_212_833)">
<rect width="37.3516" height="860" transform="matrix(-1 0 0 1 331.055 -2)" fill="#141414" fill-opacity="0.01"/>
<rect width="37.3516" height="860" transform="matrix(-1 0 0 1 331.055 -2)" fill="url(#paint15_radial_212_833)"/>
</g>
<g clip-path="url(#clip18_212_833)">
<rect width="37.3516" height="860" transform="matrix(-1 0 0 1 293.703 -2)" fill="#141414" fill-opacity="0.01"/>
<rect width="37.3516" height="860" transform="matrix(-1 0 0 1 293.703 -2)" fill="url(#paint16_radial_212_833)"/>
</g>
<g clip-path="url(#clip19_212_833)">
<rect width="37.3516" height="860" transform="matrix(-1 0 0 1 256.352 -2)" fill="#141414" fill-opacity="0.01"/>
<rect width="37.3516" height="860" transform="matrix(-1 0 0 1 256.352 -2)" fill="url(#paint17_radial_212_833)"/>
</g>
<g clip-path="url(#clip20_212_833)">
<rect width="37.3516" height="860" transform="matrix(-1 0 0 1 219 -2)" fill="#141414" fill-opacity="0.01"/>
<rect width="37.3516" height="860" transform="matrix(-1 0 0 1 219 -2)" fill="url(#paint18_radial_212_833)"/>
</g>
<g clip-path="url(#clip21_212_833)">
<rect width="37.3516" height="860" transform="matrix(-1 0 0 1 181.648 -2)" fill="#141414" fill-opacity="0.01"/>
<rect width="37.3516" height="860" transform="matrix(-1 0 0 1 181.648 -2)" fill="url(#paint19_radial_212_833)"/>
</g>
<g clip-path="url(#clip22_212_833)">
<rect width="37.3516" height="860" transform="matrix(-1 0 0 1 144.297 -2)" fill="#141414" fill-opacity="0.01"/>
<rect width="37.3516" height="860" transform="matrix(-1 0 0 1 144.297 -2)" fill="url(#paint20_radial_212_833)"/>
</g>
<g clip-path="url(#clip23_212_833)">
<rect width="37.3516" height="860" transform="matrix(-1 0 0 1 106.945 -2)" fill="#141414" fill-opacity="0.01"/>
<rect width="37.3516" height="860" transform="matrix(-1 0 0 1 106.945 -2)" fill="url(#paint21_radial_212_833)"/>
</g>
<g clip-path="url(#clip24_212_833)">
<rect width="37.3516" height="860" transform="matrix(-1 0 0 1 69.5938 -2)" fill="#141414" fill-opacity="0.01"/>
<rect width="37.3516" height="860" transform="matrix(-1 0 0 1 69.5938 -2)" fill="url(#paint22_radial_212_833)"/>
</g>
<g clip-path="url(#clip25_212_833)">
<rect width="37.3516" height="860" transform="matrix(-1 0 0 1 32.2422 -2)" fill="#141414" fill-opacity="0.01"/>
<rect width="37.3516" height="860" transform="matrix(-1 0 0 1 32.2422 -2)" fill="url(#paint23_radial_212_833)"/>
</g>
</g>
<defs>
<radialGradient id="paint0_radial_212_833" cx="0" cy="0" r="1" gradientUnits="userSpaceOnUse" gradientTransform="translate(997 428) rotate(90) scale(304.447 18.2174)">
<stop offset="0.220969" stop-color="white"/>
<stop offset="1" stop-color="white" stop-opacity="0"/>
</radialGradient>
<radialGradient id="paint1_radial_212_833" cx="0" cy="0" r="1" gradientUnits="userSpaceOnUse" gradientTransform="translate(1034.35 428) rotate(90) scale(304.447 18.2174)">
<stop offset="0.220969" stop-color="white"/>
<stop offset="1" stop-color="white" stop-opacity="0"/>
</radialGradient>
<radialGradient id="paint2_radial_212_833" cx="0" cy="0" r="1" gradientUnits="userSpaceOnUse" gradientTransform="translate(1071.7 428) rotate(90) scale(304.447 18.2174)">
<stop offset="0.220969" stop-color="white"/>
<stop offset="1" stop-color="white" stop-opacity="0"/>
</radialGradient>
<radialGradient id="paint3_radial_212_833" cx="0" cy="0" r="1" gradientUnits="userSpaceOnUse" gradientTransform="translate(1109.05 428) rotate(90) scale(304.447 18.2174)">
<stop offset="0.220969" stop-color="white"/>
<stop offset="1" stop-color="white" stop-opacity="0"/>
</radialGradient>
<radialGradient id="paint4_radial_212_833" cx="0" cy="0" r="1" gradientUnits="userSpaceOnUse" gradientTransform="translate(1146.41 428) rotate(90) scale(304.447 18.2174)">
<stop offset="0.220969" stop-color="white"/>
<stop offset="1" stop-color="white" stop-opacity="0"/>
</radialGradient>
<radialGradient id="paint5_radial_212_833" cx="0" cy="0" r="1" gradientUnits="userSpaceOnUse" gradientTransform="translate(1183.76 428) rotate(90) scale(304.447 18.2174)">
<stop offset="0.220969" stop-color="white"/>
<stop offset="1" stop-color="white" stop-opacity="0"/>
</radialGradient>
<radialGradient id="paint6_radial_212_833" cx="0" cy="0" r="1" gradientUnits="userSpaceOnUse" gradientTransform="translate(1221.11 428) rotate(90) scale(304.447 18.2174)">
<stop offset="0.220969" stop-color="white"/>
<stop offset="1" stop-color="white" stop-opacity="0"/>
</radialGradient>
<radialGradient id="paint7_radial_212_833" cx="0" cy="0" r="1" gradientUnits="userSpaceOnUse" gradientTransform="translate(1258.46 428) rotate(90) scale(304.447 18.2174)">
<stop offset="0.220969" stop-color="white"/>
<stop offset="1" stop-color="white" stop-opacity="0"/>
</radialGradient>
<radialGradient id="paint8_radial_212_833" cx="0" cy="0" r="1" gradientUnits="userSpaceOnUse" gradientTransform="translate(1295.81 428) rotate(90) scale(304.447 18.2174)">
<stop offset="0.220969" stop-color="white"/>
<stop offset="1" stop-color="white" stop-opacity="0"/>
</radialGradient>
<radialGradient id="paint9_radial_212_833" cx="0" cy="0" r="1" gradientUnits="userSpaceOnUse" gradientTransform="translate(1333.16 428) rotate(90) scale(304.447 18.2174)">
<stop offset="0.220969" stop-color="white"/>
<stop offset="1" stop-color="white" stop-opacity="0"/>
</radialGradient>
<radialGradient id="paint10_radial_212_833" cx="0" cy="0" r="1" gradientUnits="userSpaceOnUse" gradientTransform="translate(1370.52 428) rotate(90) scale(304.447 18.2174)">
<stop offset="0.220969" stop-color="white"/>
<stop offset="1" stop-color="white" stop-opacity="0"/>
</radialGradient>
<radialGradient id="paint11_radial_212_833" cx="0" cy="0" r="1" gradientUnits="userSpaceOnUse" gradientTransform="translate(1407.87 428) rotate(90) scale(304.447 18.2174)">
<stop offset="0.220969" stop-color="white"/>
<stop offset="1" stop-color="white" stop-opacity="0"/>
</radialGradient>
<radialGradient id="paint12_radial_212_833" cx="0" cy="0" r="1" gradientUnits="userSpaceOnUse" gradientTransform="translate(-2.49719e-06 430) rotate(90) scale(304.447 18.2174)">
<stop offset="0.220969" stop-color="white"/>
<stop offset="1" stop-color="white" stop-opacity="0"/>
</radialGradient>
<radialGradient id="paint13_radial_212_833" cx="0" cy="0" r="1" gradientUnits="userSpaceOnUse" gradientTransform="translate(-2.49719e-06 430) rotate(90) scale(304.447 18.2174)">
<stop offset="0.220969" stop-color="white"/>
<stop offset="1" stop-color="white" stop-opacity="0"/>
</radialGradient>
<radialGradient id="paint14_radial_212_833" cx="0" cy="0" r="1" gradientUnits="userSpaceOnUse" gradientTransform="translate(-2.49719e-06 430) rotate(90) scale(304.447 18.2174)">
<stop offset="0.220969" stop-color="white"/>
<stop offset="1" stop-color="white" stop-opacity="0"/>
</radialGradient>
<radialGradient id="paint15_radial_212_833" cx="0" cy="0" r="1" gradientUnits="userSpaceOnUse" gradientTransform="translate(-2.49719e-06 430) rotate(90) scale(304.447 18.2174)">
<stop offset="0.220969" stop-color="white"/>
<stop offset="1" stop-color="white" stop-opacity="0"/>
</radialGradient>
<radialGradient id="paint16_radial_212_833" cx="0" cy="0" r="1" gradientUnits="userSpaceOnUse" gradientTransform="translate(-2.49719e-06 430) rotate(90) scale(304.447 18.2174)">
<stop offset="0.220969" stop-color="white"/>
<stop offset="1" stop-color="white" stop-opacity="0"/>
</radialGradient>
<radialGradient id="paint17_radial_212_833" cx="0" cy="0" r="1" gradientUnits="userSpaceOnUse" gradientTransform="translate(-2.49719e-06 430) rotate(90) scale(304.447 18.2174)">
<stop offset="0.220969" stop-color="white"/>
<stop offset="1" stop-color="white" stop-opacity="0"/>
</radialGradient>
<radialGradient id="paint18_radial_212_833" cx="0" cy="0" r="1" gradientUnits="userSpaceOnUse" gradientTransform="translate(-2.49719e-06 430) rotate(90) scale(304.447 18.2174)">
<stop offset="0.220969" stop-color="white"/>
<stop offset="1" stop-color="white" stop-opacity="0"/>
</radialGradient>
<radialGradient id="paint19_radial_212_833" cx="0" cy="0" r="1" gradientUnits="userSpaceOnUse" gradientTransform="translate(-2.49719e-06 430) rotate(90) scale(304.447 18.2174)">
<stop offset="0.220969" stop-color="white"/>
<stop offset="1" stop-color="white" stop-opacity="0"/>
</radialGradient>
<radialGradient id="paint20_radial_212_833" cx="0" cy="0" r="1" gradientUnits="userSpaceOnUse" gradientTransform="translate(-2.49719e-06 430) rotate(90) scale(304.447 18.2174)">
<stop offset="0.220969" stop-color="white"/>
<stop offset="1" stop-color="white" stop-opacity="0"/>
</radialGradient>
<radialGradient id="paint21_radial_212_833" cx="0" cy="0" r="1" gradientUnits="userSpaceOnUse" gradientTransform="translate(-2.49719e-06 430) rotate(90) scale(304.447 18.2174)">
<stop offset="0.220969" stop-color="white"/>
<stop offset="1" stop-color="white" stop-opacity="0"/>
</radialGradient>
<radialGradient id="paint22_radial_212_833" cx="0" cy="0" r="1" gradientUnits="userSpaceOnUse" gradientTransform="translate(-2.49719e-06 430) rotate(90) scale(304.447 18.2174)">
<stop offset="0.220969" stop-color="white"/>
<stop offset="1" stop-color="white" stop-opacity="0"/>
</radialGradient>
<radialGradient id="paint23_radial_212_833" cx="0" cy="0" r="1" gradientUnits="userSpaceOnUse" gradientTransform="translate(-2.49719e-06 430) rotate(90) scale(304.447 18.2174)">
<stop offset="0.220969" stop-color="white"/>
<stop offset="1" stop-color="white" stop-opacity="0"/>
</radialGradient>
<clipPath id="clip0_212_833">
<rect width="443" height="860" fill="white" transform="translate(997 -2)"/>
</clipPath>
<clipPath id="clip1_212_833">
<rect width="37.3516" height="860" fill="white" transform="translate(997 -2)"/>
</clipPath>
<clipPath id="clip2_212_833">
<rect width="37.3516" height="860" fill="white" transform="translate(1034.35 -2)"/>
</clipPath>
<clipPath id="clip3_212_833">
<rect width="37.3516" height="860" fill="white" transform="translate(1071.7 -2)"/>
</clipPath>
<clipPath id="clip4_212_833">
<rect width="37.3516" height="860" fill="white" transform="translate(1109.05 -2)"/>
</clipPath>
<clipPath id="clip5_212_833">
<rect width="37.3516" height="860" fill="white" transform="translate(1146.41 -2)"/>
</clipPath>
<clipPath id="clip6_212_833">
<rect width="37.3516" height="860" fill="white" transform="translate(1183.76 -2)"/>
</clipPath>
<clipPath id="clip7_212_833">
<rect width="37.3516" height="860" fill="white" transform="translate(1221.11 -2)"/>
</clipPath>
<clipPath id="clip8_212_833">
<rect width="37.3516" height="860" fill="white" transform="translate(1258.46 -2)"/>
</clipPath>
<clipPath id="clip9_212_833">
<rect width="37.3516" height="860" fill="white" transform="translate(1295.81 -2)"/>
</clipPath>
<clipPath id="clip10_212_833">
<rect width="37.3516" height="860" fill="white" transform="translate(1333.16 -2)"/>
</clipPath>
<clipPath id="clip11_212_833">
<rect width="37.3516" height="860" fill="white" transform="translate(1370.52 -2)"/>
</clipPath>
<clipPath id="clip12_212_833">
<rect width="37.3516" height="860" fill="white" transform="translate(1407.87 -2)"/>
</clipPath>
<clipPath id="clip13_212_833">
<rect width="443" height="860" fill="white" transform="matrix(-1 0 0 1 443 -2)"/>
</clipPath>
<clipPath id="clip14_212_833">
<rect width="37.3516" height="860" fill="white" transform="matrix(-1 0 0 1 443.109 -2)"/>
</clipPath>
<clipPath id="clip15_212_833">
<rect width="37.3516" height="860" fill="white" transform="matrix(-1 0 0 1 405.758 -2)"/>
</clipPath>
<clipPath id="clip16_212_833">
<rect width="37.3516" height="860" fill="white" transform="matrix(-1 0 0 1 368.406 -2)"/>
</clipPath>
<clipPath id="clip17_212_833">
<rect width="37.3516" height="860" fill="white" transform="matrix(-1 0 0 1 331.055 -2)"/>
</clipPath>
<clipPath id="clip18_212_833">
<rect width="37.3516" height="860" fill="white" transform="matrix(-1 0 0 1 293.703 -2)"/>
</clipPath>
<clipPath id="clip19_212_833">
<rect width="37.3516" height="860" fill="white" transform="matrix(-1 0 0 1 256.352 -2)"/>
</clipPath>
<clipPath id="clip20_212_833">
<rect width="37.3516" height="860" fill="white" transform="matrix(-1 0 0 1 219 -2)"/>
</clipPath>
<clipPath id="clip21_212_833">
<rect width="37.3516" height="860" fill="white" transform="matrix(-1 0 0 1 181.648 -2)"/>
</clipPath>
<clipPath id="clip22_212_833">
<rect width="37.3516" height="860" fill="white" transform="matrix(-1 0 0 1 144.297 -2)"/>
</clipPath>
<clipPath id="clip23_212_833">
<rect width="37.3516" height="860" fill="white" transform="matrix(-1 0 0 1 106.945 -2)"/>
</clipPath>
<clipPath id="clip24_212_833">
<rect width="37.3516" height="860" fill="white" transform="matrix(-1 0 0 1 69.5938 -2)"/>
</clipPath>
<clipPath id="clip25_212_833">
<rect width="37.3516" height="860" fill="white" transform="matrix(-1 0 0 1 32.2422 -2)"/>
</clipPath>
</defs>
</svg>
