<svg width="72" height="72" viewBox="0 0 72 72" fill="none" xmlns="http://www.w3.org/2000/svg">
<rect y="-0.000488281" width="72" height="72" rx="8.47071" fill="white"/>
<path d="M38.5355 10.5879C34.423 10.5879 31.071 13.8443 30.9175 17.9192L30.912 17.9247L30.912 23.2933C30.912 24.697 29.7741 25.8349 28.3704 25.8349C26.9667 25.8349 25.8288 24.697 25.8288 23.2933L25.8288 17.8625C25.6412 13.8186 22.303 10.5972 18.2127 10.5972C14.002 10.5972 10.5885 14.0107 10.5885 18.2214C10.5885 22.2948 13.783 25.6222 17.8034 25.8349H23.2963C24.6998 25.8349 25.8375 26.9726 25.8375 28.376C25.8375 29.7795 24.6998 30.9172 23.2963 30.9172H17.9173L17.9114 30.923C13.84 31.0812 10.5879 34.4318 10.5879 38.542V53.7863C10.5879 57.9974 14.0016 61.4111 18.2127 61.4111C22.4237 61.4111 25.8375 57.9974 25.8375 53.7863V43.864C25.8317 43.7942 25.8288 43.7236 25.8288 43.6523V33.4886C25.8288 32.0849 26.9667 30.947 28.3704 30.947C29.7741 30.947 30.912 32.0849 30.912 33.4886V38.8848L30.9193 38.8921C31.088 42.9535 34.4339 46.1945 38.5368 46.1945C42.7475 46.1945 46.1609 42.7809 46.1609 38.5703C46.1609 34.4895 42.9548 31.1574 38.9242 30.9557L38.9151 30.9467H33.4531C32.0497 30.9467 30.912 29.8089 30.912 28.4055C30.912 27.002 32.0497 25.8643 33.4531 25.8643H38.9137L38.9431 25.8349L53.7876 25.8349C57.998 25.8349 61.4111 22.4217 61.4111 18.2114C61.4111 14.001 57.998 10.5879 53.7876 10.5879H38.5355Z" fill="black"/>
</svg>
