<svg width="153" height="39" viewBox="0 0 153 39" fill="none" xmlns="http://www.w3.org/2000/svg">
<path d="M20.8971 0.492676C17.8222 0.492676 15.316 2.92744 15.2012 5.97422L15.1971 5.97833L15.1971 9.99235C15.1971 11.0419 14.3463 11.8927 13.2968 11.8927C12.2472 11.8927 11.3964 11.0419 11.3964 9.99235L11.3964 5.93184C11.2562 2.90823 8.76023 0.499611 5.70195 0.499611C2.55366 0.499611 0.00146373 3.05189 0.00146373 6.20018C0.00146373 9.24582 2.38994 11.7337 5.39596 11.8927H9.50292C10.5523 11.8927 11.4029 12.7433 11.4029 13.7927C11.4029 14.842 10.5523 15.6927 9.50293 15.6927H5.48108L5.47671 15.697C2.43256 15.8153 0.000976562 18.3205 0.000976562 21.3936V32.7917C0.000976562 35.9403 2.55339 38.4927 5.70195 38.4927C8.85051 38.4927 11.4029 35.9403 11.4029 32.7917V25.3729C11.3986 25.3207 11.3964 25.2679 11.3964 25.2146V17.6153C11.3964 16.5657 12.2472 15.7149 13.2968 15.7149C14.3463 15.7149 15.1971 16.5657 15.1971 17.6153V21.65L15.2026 21.6554C15.3287 24.6921 17.8304 27.1154 20.8981 27.1154C24.0463 27.1154 26.5985 24.5631 26.5985 21.4148C26.5985 18.3636 24.2014 15.8723 21.1877 15.7215L21.181 15.7147H17.0971C16.0477 15.7147 15.1971 14.8641 15.1971 13.8147C15.1971 12.7654 16.0477 11.9147 17.0971 11.9147H21.1799L21.2019 11.8927L32.301 11.8927C35.449 11.8927 38.001 9.3407 38.001 6.19268C38.001 3.04465 35.449 0.492676 32.301 0.492676H20.8971Z" fill="white"/>
<path d="M50.001 15.9173V0.954834H58.8182V3.17783H52.224V6.79021H57.7922V9.01321H52.224V15.9173H50.001Z" fill="white"/>
<path d="M60.0836 5.22983H62.3066V15.9173H60.0836V5.22983ZM61.2165 3.68015C60.8745 3.68015 60.5895 3.56971 60.3615 3.34884C60.1335 3.12796 60.0195 2.85008 60.0195 2.51521C60.0195 2.18746 60.1335 1.91315 60.3615 1.69227C60.5895 1.46427 60.8709 1.35027 61.2058 1.35027C61.5335 1.35027 61.8114 1.46427 62.0394 1.69227C62.2674 1.91315 62.3814 2.18746 62.3814 2.51521C62.3814 2.85008 62.2674 3.12796 62.0394 3.34884C61.8185 3.56971 61.5442 3.68015 61.2165 3.68015Z" fill="white"/>
<path d="M70.0792 7.45283H67.8349L67.8242 15.9173H65.6012L65.6119 7.45283H63.9125V5.22983H65.6119L65.6012 1.87396H67.8242L67.8349 5.22983H70.0792V7.45283Z" fill="white"/>
<path d="M71.5651 15.9173V5.22983H73.7881V6.36271C74.1586 5.92096 74.6146 5.57183 75.1561 5.31533C75.6976 5.05883 76.2819 4.93058 76.9089 4.93058C77.3079 4.93058 77.7033 4.98402 78.0952 5.0909L77.2081 7.33527C76.9303 7.2284 76.6524 7.17496 76.3745 7.17496C75.9043 7.17496 75.4732 7.29252 75.0813 7.52765C74.6894 7.75565 74.3759 8.06558 74.1408 8.45746C73.9057 8.84933 73.7881 9.28396 73.7881 9.76133V15.9173H71.5651Z" fill="white"/>
<path d="M78.9028 5.22983H81.1258V15.9173H78.9028V5.22983ZM80.0356 3.68015C79.6936 3.68015 79.4086 3.56971 79.1806 3.34884C78.9526 3.12796 78.8386 2.85008 78.8386 2.51521C78.8386 2.18746 78.9526 1.91315 79.1806 1.69227C79.4086 1.46427 79.6901 1.35027 80.025 1.35027C80.3527 1.35027 80.6306 1.46427 80.8586 1.69227C81.0866 1.91315 81.2006 2.18746 81.2006 2.51521C81.2006 2.85008 81.0866 3.12796 80.8586 3.34884C80.6377 3.56971 80.3634 3.68015 80.0356 3.68015Z" fill="white"/>
<path d="M87.77 16.1952C86.7868 16.1952 85.8891 15.9423 85.0768 15.4364C84.2717 14.9305 83.6269 14.2536 83.1424 13.4058C82.665 12.5508 82.4263 11.6067 82.4263 10.5736C82.4263 9.78983 82.5652 9.05952 82.8431 8.38265C83.121 7.69865 83.5022 7.10015 83.9867 6.58715C84.4783 6.06702 85.0483 5.6609 85.6967 5.36877C86.3451 5.07665 87.0362 4.93058 87.77 4.93058C88.7533 4.93058 89.6475 5.18352 90.4526 5.6894C91.2649 6.19527 91.9097 6.87571 92.3871 7.73071C92.8716 8.58571 93.1138 9.53333 93.1138 10.5736C93.1138 11.3502 92.9749 12.077 92.697 12.7538C92.4191 13.4307 92.0344 14.0292 91.5427 14.5493C91.0582 15.0623 90.4918 15.4649 89.8434 15.757C89.2022 16.0491 88.5111 16.1952 87.77 16.1952ZM87.77 13.9722C88.3614 13.9722 88.8922 13.8155 89.3625 13.502C89.8327 13.1885 90.2032 12.7752 90.474 12.2622C90.7519 11.7421 90.8908 11.1792 90.8908 10.5736C90.8908 9.95371 90.7483 9.38371 90.4633 8.86358C90.1854 8.34346 89.8114 7.93021 89.3411 7.62383C88.8709 7.31033 88.3472 7.15358 87.77 7.15358C87.1858 7.15358 86.655 7.31033 86.1776 7.62383C85.7074 7.93733 85.3333 8.35415 85.0554 8.87427C84.7847 9.3944 84.6493 9.96083 84.6493 10.5736C84.6493 11.2077 84.7918 11.7813 85.0768 12.2943C85.3618 12.8073 85.7394 13.217 86.2097 13.5233C86.687 13.8226 87.2072 13.9722 87.77 13.9722Z" fill="white"/>
<path d="M50.001 37.7674V22.8049H54.9493C55.9824 22.8049 56.9514 23.0009 57.8563 23.3927C58.7612 23.7775 59.5556 24.3154 60.2396 25.0066C60.9236 25.6906 61.458 26.485 61.8427 27.3899C62.2346 28.2876 62.4305 29.2531 62.4305 30.2862C62.4305 31.3193 62.2346 32.2883 61.8427 33.1932C61.458 34.0909 60.9236 34.8854 60.2396 35.5765C59.5556 36.2605 58.7612 36.7984 57.8563 37.1903C56.9514 37.5751 55.9824 37.7674 54.9493 37.7674H50.001ZM52.224 35.5444H54.9493C55.676 35.5444 56.3529 35.4091 56.9799 35.1383C57.614 34.8676 58.1734 34.4899 58.6579 34.0054C59.1495 33.5209 59.5307 32.9616 59.8014 32.3275C60.0722 31.6934 60.2075 31.0129 60.2075 30.2862C60.2075 29.5594 60.0722 28.879 59.8014 28.2449C59.5307 27.6107 59.1495 27.0514 58.6579 26.5669C58.1734 26.0824 57.614 25.7048 56.9799 25.4341C56.3529 25.1633 55.676 25.0279 54.9493 25.0279H52.224V35.5444Z" fill="white"/>
<path d="M68.7934 38.0453C67.8102 38.0453 66.9124 37.7924 66.1002 37.2865C65.2951 36.7806 64.6503 36.1037 64.1658 35.2559C63.6884 34.4009 63.4497 33.4568 63.4497 32.4237C63.4497 31.6399 63.5886 30.9096 63.8665 30.2327C64.1444 29.5487 64.5256 28.9502 65.0101 28.4372C65.5017 27.9171 66.0717 27.511 66.7201 27.2189C67.3684 26.9267 68.0596 26.7807 68.7934 26.7807C69.6128 26.7807 70.3645 26.9517 71.0485 27.2937C71.7325 27.6286 72.3168 28.0952 72.8013 28.6937C73.2858 29.2851 73.642 29.9691 73.87 30.7457C74.098 31.5152 74.1657 32.3346 74.0731 33.2039H65.833C65.9256 33.6955 66.1038 34.1408 66.3674 34.5398C66.6381 34.9317 66.9801 35.2416 67.3934 35.4696C67.8138 35.6976 68.2804 35.8152 68.7934 35.8223C69.3349 35.8223 69.8266 35.6869 70.2683 35.4162C70.7172 35.1454 71.0841 34.7714 71.3691 34.294L73.6242 34.8177C73.1967 35.7653 72.5519 36.5419 71.6898 37.1476C70.8276 37.7461 69.8622 38.0453 68.7934 38.0453ZM65.7582 31.5046H71.8287C71.7574 30.9916 71.5758 30.5284 71.2836 30.1152C70.9986 29.6948 70.6388 29.3635 70.2042 29.1212C69.7767 28.8719 69.3064 28.7472 68.7934 28.7472C68.2876 28.7472 67.8173 28.8683 67.3827 29.1106C66.9552 29.3528 66.5989 29.6841 66.3139 30.1045C66.0361 30.5177 65.8508 30.9844 65.7582 31.5046Z" fill="white"/>
<path d="M75.4155 37.7674V27.0799H77.6385V28.2128C78.009 27.7711 78.465 27.4219 79.0065 27.1654C79.548 26.9089 80.1323 26.7807 80.7593 26.7807C81.1583 26.7807 81.5537 26.8341 81.9456 26.941L81.0585 29.1854C80.7806 29.0785 80.5028 29.0251 80.2249 29.0251C79.7546 29.0251 79.3236 29.1426 78.9317 29.3777C78.5398 29.6057 78.2263 29.9157 77.9912 30.3076C77.7561 30.6994 77.6385 31.1341 77.6385 31.6114V37.7674H75.4155Z" fill="white"/>
<path d="M82.8366 37.7674V27.0799H85.0596V28.2128C85.4301 27.7711 85.8826 27.4219 86.417 27.1654C86.9585 26.9089 87.5427 26.7807 88.1697 26.7807C88.9321 26.7807 89.6339 26.9659 90.2752 27.3364C90.9164 27.6998 91.4258 28.1843 91.8035 28.7899C92.1811 28.1843 92.6834 27.6998 93.3104 27.3364C93.9445 26.9659 94.6428 26.7807 95.4051 26.7807C96.196 26.7807 96.9156 26.9731 97.564 27.3578C98.2124 27.7426 98.729 28.2591 99.1137 28.9075C99.4985 29.5559 99.6908 30.2755 99.6908 31.0664V37.7674H97.4678V31.6328C97.4678 31.1626 97.3538 30.7315 97.1258 30.3396C96.8978 29.9477 96.5915 29.6307 96.2067 29.3884C95.822 29.1462 95.3945 29.0251 94.9242 29.0251C94.454 29.0251 94.0265 29.1391 93.6417 29.3671C93.257 29.5951 92.9506 29.905 92.7226 30.2969C92.4946 30.6887 92.3806 31.1341 92.3806 31.6328V37.7674H90.1576V31.6328C90.1576 31.1341 90.0436 30.6887 89.8156 30.2969C89.5876 29.905 89.2776 29.5951 88.8858 29.3671C88.501 29.1391 88.0735 29.0251 87.6033 29.0251C87.1402 29.0251 86.7126 29.1462 86.3208 29.3884C85.936 29.6307 85.6296 29.9477 85.4016 30.3396C85.1736 30.7315 85.0596 31.1626 85.0596 31.6328V37.7674H82.8366Z" fill="white"/>
<path d="M109.511 27.0799H111.734V37.7674H109.5L109.414 36.2177C109.101 36.7664 108.677 37.2081 108.143 37.543C107.608 37.8779 106.978 38.0453 106.251 38.0453C105.467 38.0453 104.73 37.8992 104.039 37.6071C103.348 37.3079 102.738 36.8946 102.211 36.3674C101.691 35.8401 101.285 35.2345 100.993 34.5505C100.701 33.8594 100.555 33.1184 100.555 32.3275C100.555 31.5651 100.697 30.8491 100.982 30.1793C101.267 29.5024 101.662 28.9111 102.168 28.4052C102.674 27.8993 103.258 27.5039 103.921 27.2189C104.591 26.9267 105.307 26.7807 106.069 26.7807C106.846 26.7807 107.53 26.9588 108.121 27.3151C108.72 27.6642 109.215 28.1131 109.607 28.6617L109.511 27.0799ZM106.198 35.8971C106.825 35.8971 107.373 35.7439 107.843 35.4376C108.314 35.1241 108.677 34.7037 108.934 34.1764C109.197 33.6492 109.329 33.0649 109.329 32.4237C109.329 31.7753 109.197 31.1875 108.934 30.6602C108.67 30.133 108.303 29.7162 107.833 29.4098C107.37 29.0963 106.825 28.9396 106.198 28.9396C105.578 28.9396 105.011 29.0963 104.498 29.4098C103.985 29.7233 103.579 30.1437 103.28 30.6709C102.981 31.1982 102.831 31.7824 102.831 32.4237C102.831 33.0721 102.984 33.6599 103.291 34.1871C103.604 34.7072 104.014 35.1241 104.52 35.4376C105.033 35.7439 105.592 35.8971 106.198 35.8971Z" fill="white"/>
<path d="M118.194 37.7674H115.981L112.401 27.0799H114.581L117.103 34.5826L119.604 27.0799H121.849L124.35 34.5826L126.861 27.0799H129.041L125.472 37.7674H123.238L120.716 30.2114L118.194 37.7674Z" fill="white"/>
<path d="M138.172 27.0799H140.395V37.7674H138.161L138.075 36.2177C137.762 36.7664 137.338 37.2081 136.804 37.543C136.269 37.8779 135.639 38.0453 134.912 38.0453C134.128 38.0453 133.391 37.8992 132.7 37.6071C132.008 37.3079 131.399 36.8946 130.872 36.3674C130.352 35.8401 129.946 35.2345 129.654 34.5505C129.361 33.8594 129.215 33.1184 129.215 32.3275C129.215 31.5651 129.358 30.8491 129.643 30.1793C129.928 29.5024 130.323 28.9111 130.829 28.4052C131.335 27.8993 131.919 27.5039 132.582 27.2189C133.252 26.9267 133.968 26.7807 134.73 26.7807C135.507 26.7807 136.191 26.9588 136.782 27.3151C137.381 27.6642 137.876 28.1131 138.268 28.6617L138.172 27.0799ZM134.858 35.8971C135.485 35.8971 136.034 35.7439 136.504 35.4376C136.975 35.1241 137.338 34.7037 137.594 34.1764C137.858 33.6492 137.99 33.0649 137.99 32.4237C137.99 31.7753 137.858 31.1875 137.594 30.6602C137.331 30.133 136.964 29.7162 136.494 29.4098C136.03 29.0963 135.485 28.9396 134.858 28.9396C134.239 28.9396 133.672 29.0963 133.159 29.4098C132.646 29.7233 132.24 30.1437 131.941 30.6709C131.641 31.1982 131.492 31.7824 131.492 32.4237C131.492 33.0721 131.645 33.6599 131.951 34.1871C132.265 34.7072 132.675 35.1241 133.18 35.4376C133.693 35.7439 134.253 35.8971 134.858 35.8971Z" fill="white"/>
<path d="M151.718 31.0664V37.7674H149.495V31.6114C149.495 31.1341 149.378 30.6994 149.143 30.3076C148.915 29.9157 148.605 29.6057 148.213 29.3777C147.828 29.1426 147.394 29.0251 146.909 29.0251C146.439 29.0251 146.008 29.1426 145.616 29.3777C145.224 29.6057 144.91 29.9157 144.675 30.3076C144.44 30.6994 144.323 31.1341 144.323 31.6114V37.7674H142.1V27.0799H144.323V28.2128C144.693 27.7711 145.149 27.4219 145.691 27.1654C146.232 26.9089 146.816 26.7807 147.443 26.7807C148.234 26.7807 148.954 26.9731 149.602 27.3578C150.251 27.7426 150.764 28.2591 151.141 28.9075C151.526 29.5559 151.718 30.2755 151.718 31.0664Z" fill="white"/>
</svg>
